<?xml version="1.0" standalone="no"?>
<!DOCTYPE svg PUBLIC "-//W3C//DTD SVG 20010904//EN"
 "http://www.w3.org/TR/2001/REC-SVG-20010904/DTD/svg10.dtd">
<svg version="1.0" xmlns="http://www.w3.org/2000/svg"
 width="225.000000pt" height="225.000000pt" viewBox="0 0 225.000000 225.000000"
 preserveAspectRatio="xMidYMid meet">
<metadata>
Created by potrace 1.10, written by Peter Selinger 2001-2011
</metadata>
<g transform="translate(0.000000,225.000000) scale(0.100000,-0.100000)"
fill="#000000" stroke="none">
<path d="M192 1930 l-50 -151 34 -161 34 -161 -22 -15 -21 -16 32 -26 32 -27
-27 -17 -26 -18 33 -28 c33 -28 34 -29 14 -43 -19 -15 -19 -16 23 -65 23 -28
42 -54 42 -59 0 -5 -29 -103 -65 -217 l-65 -209 61 -216 c34 -119 63 -217 64
-219 2 -2 101 24 220 57 l218 62 31 -26 c17 -13 75 -56 128 -95 l97 -70 151 0
151 0 47 32 c26 17 84 60 129 95 l83 64 216 -61 c118 -34 217 -60 219 -58 2 2
31 99 65 216 43 147 60 222 55 240 -3 15 -33 112 -67 216 -43 135 -63 185 -71
177 -10 -10 25 -137 94 -341 15 -44 17 -65 10 -100 -7 -36 -67 -252 -97 -352
-3 -10 -11 -18 -17 -18 -7 0 -96 23 -199 52 -158 45 -189 57 -202 78 -15 25
-15 25 -16 2 0 -21 -2 -21 -22 -8 -51 31 -202 106 -206 102 -10 -10 13 -25
117 -76 61 -30 111 -57 111 -60 0 -3 -41 -26 -91 -50 -49 -25 -85 -46 -79 -48
6 -2 -11 -20 -37 -40 l-48 -37 -119 -3 c-148 -5 -171 0 -221 43 -25 22 -32 33
-20 29 11 -3 -16 14 -60 39 -44 24 -90 47 -102 51 -13 4 -23 11 -23 15 0 4 54
33 120 65 66 32 118 61 115 66 -6 10 -25 2 -143 -58 -79 -41 -85 -42 -112 -28
-27 13 -28 13 -17 -5 6 -10 9 -20 7 -22 -3 -3 -63 -21 -135 -41 -72 -20 -156
-43 -188 -53 -38 -11 -61 -13 -67 -7 -14 14 -112 362 -105 373 3 5 0 11 -6 13
-7 2 10 69 47 183 32 99 58 197 58 218 l0 37 91 29 c49 16 142 44 205 62 l115
33 133 115 c72 64 132 120 131 126 0 5 -146 120 -325 255 -179 135 -330 251
-336 258 -6 7 27 -6 73 -28 46 -22 113 -51 149 -64 36 -13 125 -47 198 -75
l133 -50 265 0 266 1 101 40 c56 21 149 57 207 80 58 22 141 59 185 80 44 22
76 36 70 30 -13 -12 -448 -343 -582 -442 -56 -41 -101 -80 -100 -87 1 -7 62
-64 135 -127 88 -76 145 -117 170 -124 20 -5 115 -33 211 -61 95 -29 175 -51
176 -49 2 2 21 25 44 52 39 49 40 50 20 64 -20 14 -20 15 12 41 l32 27 -27 21
-27 21 31 18 c35 21 36 25 12 47 -17 16 -17 23 14 175 l33 158 -49 150 c-33
101 -53 148 -62 146 -19 -5 -197 -71 -421 -156 l-198 -76 -258 0 -258 0 -134
51 c-230 88 -463 177 -481 184 -13 5 -24 -18 -66 -145z m161 40 c40 -27 110
-79 157 -115 47 -37 163 -125 258 -197 169 -128 193 -155 158 -175 -7 -4 -44
-36 -82 -70 -38 -34 -82 -74 -99 -88 -16 -14 -68 -37 -115 -51 -47 -15 -134
-42 -194 -60 -60 -19 -113 -34 -117 -34 -5 0 -20 12 -34 27 -17 19 -25 39 -25
65 0 20 -5 40 -11 44 -6 3 -8 20 -5 38 4 20 1 39 -8 51 -10 14 -11 25 -4 38 7
13 0 64 -22 178 l-32 159 37 112 c21 62 40 116 42 121 8 14 24 7 96 -43z
m1691 -70 c43 -128 44 -94 -2 -336 -13 -67 -16 -107 -10 -118 7 -12 5 -25 -6
-41 -10 -16 -14 -35 -10 -54 4 -19 2 -37 -6 -46 -7 -8 -10 -25 -6 -38 7 -30
-45 -91 -72 -83 -9 3 -96 28 -192 57 -129 38 -185 59 -215 82 -76 59 -205 179
-205 191 0 7 12 22 28 33 15 11 142 108 283 214 140 107 266 202 280 212 13 9
33 24 44 32 37 27 49 14 89 -105z"/>
<path d="M833 927 l-63 -32 83 -24 c45 -13 89 -26 98 -28 13 -4 11 7 -13 54
-16 32 -32 59 -36 60 -4 1 -35 -12 -69 -30z m77 -23 c0 -10 -7 -14 -22 -12
-32 5 -35 28 -4 28 17 0 26 -5 26 -16z"/>
<path d="M1328 900 c-14 -33 -26 -60 -25 -60 1 0 45 13 97 29 l95 28 -69 32
c-38 17 -69 31 -70 31 -1 0 -13 -27 -28 -60z m82 9 c0 -4 -9 -13 -21 -20 -27
-14 -48 3 -30 25 12 14 51 11 51 -5z"/>
<path d="M531 694 c8 -10 15 -12 17 -5 2 7 39 11 102 11 94 0 99 -1 103 -22 4
-20 4 -19 6 5 l1 27 -121 0 c-111 0 -120 -1 -108 -16z"/>
<path d="M1500 694 c0 -13 3 -14 14 -4 10 8 48 11 115 9 55 -2 104 0 107 4 4
4 -47 7 -114 7 -106 0 -122 -2 -122 -16z"/>
<path d="M997 541 c-7 -8 -16 -50 -22 -95 l-10 -81 153 3 c116 3 157 0 169
-10 15 -12 16 -10 10 19 -4 18 -9 62 -13 97 -5 45 -11 67 -22 71 -9 3 -70 7
-135 8 -91 2 -121 -1 -130 -12z m243 -31 c5 -8 10 -34 10 -57 l0 -43 -120 0
-120 0 0 43 c0 71 11 77 133 74 65 -1 90 -6 97 -17z"/>
</g>
</svg>
